<mxfile host="app.diagrams.net" modified="2023-10-03T12:12:19.328Z" agent="Mozilla/5.0 (Windows NT 10.0; Win64; x64) AppleWebKit/537.36 (KHTML, like Gecko) Chrome/117.0.0.0 Safari/537.36" etag="FOyeioaQbX8A7ZIPR_Gt" version="22.0.2" type="github">
  <diagram name="第 1 页" id="wvGjfcAGjBCB93CNbPWg">
    <mxGraphModel dx="743" dy="418" grid="1" gridSize="10" guides="1" tooltips="1" connect="1" arrows="1" fold="1" page="1" pageScale="1" pageWidth="1920" pageHeight="1200" math="0" shadow="0">
      <root>
        <mxCell id="0" />
        <mxCell id="1" parent="0" />
      </root>
    </mxGraphModel>
  </diagram>
</mxfile>
